<?xml version="1.0" encoding="utf-8"?>
<!-- Generator: Adobe Illustrator 16.0.4, SVG Export Plug-In . SVG Version: 6.00 Build 0)  -->
<!DOCTYPE svg PUBLIC "-//W3C//DTD SVG 1.1//EN" "http://www.w3.org/Graphics/SVG/1.1/DTD/svg11.dtd">
<svg version="1.1" id="Warstwa_1" xmlns="http://www.w3.org/2000/svg" xmlns:xlink="http://www.w3.org/1999/xlink" x="0px" y="0px"
	 width="120px" height="120px" viewBox="0 0 120 120" enable-background="new 0 0 120 120" xml:space="preserve">
<g>
	<circle fill="none" stroke="#FF9C9C" stroke-miterlimit="10" cx="60.25" cy="60.25" r="55"/>
	<g>
		<path fill="#FF9C9C" d="M75.713,63.006c-0.289,1.684-1.922,2.631-3.289,3.343c-4.921,2.472-10.654,2.895-16.05,2.317
			c-3.659-0.396-7.396-1.372-10.369-3.659c-1.396-1.08-1.396-2.92-1.658-4.474c-0.921-5.395-1.972-10.788-2.632-16.234
			c0.318-2.369,2.975-3.396,4.947-4.134c2.632-0.972,5.446-1.42,8.235-1.684c5.946-0.579,12.025-0.368,17.787,1.315
			c2.055,0.607,4.264,1.449,5.658,3.212c0.631,0.815,0.424,1.841,0.292,2.762C77.738,51.533,76.713,57.27,75.713,63.006z
			 M70.82,78.61c-4.711,2.605-10.423,2.894-15.604,1.973c-2.735-0.498-5.947-1.365-7.447-3.946
			c-0.659-2.526-1.079-5.104-1.501-7.684l0.159-0.423l0.475-0.236c7.842,5.185,18.817,5.185,26.681,0
			c1.236,0.369,0.315,1.869,0.29,2.763C73.136,73.638,73.555,77.109,70.82,78.61z M67.503,41.745
			c-4.92-0.787-9.973-0.815-14.893,0.053c-1.633,0.263-3.477,0.552-4.501,2.025c1.685,1.578,4.079,1.817,6.235,2.08
			c3.895,0.499,7.895,0.526,11.787,0.026c2.188-0.262,4.607-0.474,6.237-2.104C71.216,42.298,69.239,42.034,67.503,41.745z
			 M57.926,53.429c-2.186,0.972-3.66,3.287-3.555,5.734c0.134,3.211,3.185,5.841,6.393,5.551c3.212-0.288,5.712-3.419,5.319-6.629
			C65.608,54.348,61.372,51.876,57.926,53.429z M58.898,61.453c-2.105-0.92-2.105-4.263-0.054-5.208
			c1.764-1.081,4.318,0.342,4.318,2.393C63.451,60.849,60.766,62.586,58.898,61.453z"/>
	</g>
</g>
</svg>
