<?xml version="1.0" encoding="utf-8"?>
<!-- Generator: Adobe Illustrator 16.0.4, SVG Export Plug-In . SVG Version: 6.00 Build 0)  -->
<!DOCTYPE svg PUBLIC "-//W3C//DTD SVG 1.1//EN" "http://www.w3.org/Graphics/SVG/1.1/DTD/svg11.dtd">
<svg version="1.1" id="Warstwa_1" xmlns="http://www.w3.org/2000/svg" xmlns:xlink="http://www.w3.org/1999/xlink" x="0px" y="0px"
	 width="120px" height="120px" viewBox="0 0 120 120" enable-background="new 0 0 120 120" xml:space="preserve">
<g>
	<circle fill="none" stroke="#FF9C9C" stroke-miterlimit="10" cx="60.25" cy="60.25" r="55"/>
	<g>
		<path fill="#FF9C9C" d="M50.247,43.516c5.418,0,10.111,1.531,10.111,7.829c0,3.187-1.479,5.244-4.314,6.599
			c3.889,1.105,5.771,4.041,5.771,8.006c0,6.424-5.396,9.184-11.144,9.184H35.341V43.516H50.247z M49.346,56.288
			c2.481,0,4.238-1.078,4.238-3.764c0-2.91-2.26-3.612-4.766-3.612h-6.53v7.375L49.346,56.288L49.346,56.288z M49.72,69.765
			c2.837,0,5.143-1.005,5.143-4.192c0-3.238-1.933-4.515-4.993-4.515h-7.581v8.707H49.72z M80.759,68.03h5.546
			c-1.707,5.245-5.244,7.704-10.715,7.704c-7.227,0-11.718-4.893-11.718-12.02c0-6.875,4.744-12.117,11.718-12.117
			c7.179,0,11.142,5.645,11.142,12.418c0,0.402-0.025,0.805-0.05,1.179H70.17c0,3.665,1.931,5.822,5.619,5.822
			C77.698,71.02,80.157,69.988,80.759,68.03z M68.89,45.646v3.113h12.823v-3.113H68.89z M70.17,61.232h10.238
			c-0.279-3.039-1.859-4.895-5.018-4.895C72.38,56.338,70.369,58.222,70.17,61.232z"/>
	</g>
	<circle fill="none" stroke="#FF9C9C" stroke-miterlimit="10" cx="60.25" cy="60.25" r="55"/>
	<g>
		<path fill="#FF9C9C" d="M50.247,43.516c5.418,0,10.111,1.531,10.111,7.829c0,3.187-1.479,5.244-4.314,6.599
			c3.889,1.105,5.771,4.041,5.771,8.006c0,6.424-5.396,9.184-11.144,9.184H35.341V43.516H50.247z M49.346,56.288
			c2.481,0,4.238-1.078,4.238-3.764c0-2.91-2.26-3.612-4.766-3.612h-6.53v7.375L49.346,56.288L49.346,56.288z M49.72,69.765
			c2.837,0,5.143-1.005,5.143-4.192c0-3.238-1.933-4.515-4.993-4.515h-7.581v8.707H49.72z M80.759,68.03h5.546
			c-1.707,5.245-5.244,7.704-10.715,7.704c-7.227,0-11.718-4.893-11.718-12.02c0-6.875,4.744-12.117,11.718-12.117
			c7.179,0,11.142,5.645,11.142,12.418c0,0.402-0.025,0.805-0.05,1.179H70.17c0,3.665,1.931,5.822,5.619,5.822
			C77.698,71.02,80.157,69.988,80.759,68.03z M68.89,45.646v3.113h12.823v-3.113H68.89z M70.17,61.232h10.238
			c-0.279-3.039-1.859-4.895-5.018-4.895C72.38,56.338,70.369,58.222,70.17,61.232z"/>
	</g>
</g>
</svg>
