<?xml version="1.0" encoding="utf-8"?>
<!-- Generator: Adobe Illustrator 16.0.4, SVG Export Plug-In . SVG Version: 6.00 Build 0)  -->
<!DOCTYPE svg PUBLIC "-//W3C//DTD SVG 1.1//EN" "http://www.w3.org/Graphics/SVG/1.1/DTD/svg11.dtd">
<svg version="1.1" id="Warstwa_1" xmlns="http://www.w3.org/2000/svg" xmlns:xlink="http://www.w3.org/1999/xlink" x="0px" y="0px"
	 width="120px" height="120px" viewBox="0 0 120 120" enable-background="new 0 0 120 120" xml:space="preserve">
<g>
	<circle fill="none" stroke="#FF9C9C" stroke-miterlimit="10" cx="59.759" cy="60.25" r="55"/>
	<g>
		<g>
			<path fill="#FF9C9C" d="M80.304,51.83v27.769c0,1.279-1.035,2.318-2.312,2.318H45.593c-1.277,0-2.314-1.037-2.314-2.318V41.031
				c0-1.277,1.035-2.315,2.314-2.315H67.19c1.277,0,3.061,0.749,3.955,1.639l7.52,7.52C79.557,48.768,80.304,50.553,80.304,51.83z
				 M77.221,54.146H67.19c-1.276,0-2.313-1.037-2.313-2.315V41.801H46.364v37.027h30.856V54.146z M67.964,51.057h9.063
				c-0.147-0.409-0.362-0.818-0.53-0.986l-7.548-7.546c-0.167-0.169-0.575-0.385-0.985-0.53V51.057L67.964,51.057z"/>
		</g>
		<g>
			<path fill="#FF9C9C" d="M61.193,68.073l0.016,0.048c0.021,1.284-0.341,2.257-1.083,2.92c-0.747,0.663-1.802,0.995-3.17,0.995
				c-1.395,0-2.512-0.427-3.354-1.277c-0.842-0.85-1.264-1.964-1.264-3.342v-2.352c0-1.372,0.406-2.482,1.219-3.336
				c0.812-0.854,1.886-1.28,3.22-1.28c1.429,0,2.533,0.333,3.313,1.001c0.783,0.663,1.162,1.628,1.141,2.897l-0.021,0.049h-2.545
				c0-0.69-0.148-1.189-0.441-1.485c-0.292-0.3-0.773-0.448-1.446-0.448c-0.588,0-1.038,0.236-1.352,0.706
				c-0.314,0.473-0.473,1.099-0.473,1.885v2.366c0,0.788,0.171,1.419,0.519,1.894c0.344,0.476,0.841,0.712,1.483,0.712
				c0.599,0,1.029-0.148,1.293-0.448c0.268-0.298,0.399-0.8,0.399-1.501h2.547V68.073z"/>
			<path fill="#FF9C9C" d="M66.693,68.817l0.077,0.41h0.046l0.078-0.381l2.236-8.237h2.737l-3.649,11.264h-2.823L61.76,60.609h2.73
				L66.693,68.817z"/>
		</g>
	</g>
</g>
</svg>
