<?xml version="1.0" encoding="utf-8"?>
<!-- Generator: Adobe Illustrator 16.0.4, SVG Export Plug-In . SVG Version: 6.00 Build 0)  -->
<!DOCTYPE svg PUBLIC "-//W3C//DTD SVG 1.1//EN" "http://www.w3.org/Graphics/SVG/1.1/DTD/svg11.dtd">
<svg version="1.1" id="Warstwa_1" xmlns="http://www.w3.org/2000/svg" xmlns:xlink="http://www.w3.org/1999/xlink" x="0px" y="0px"
	 width="80px" height="80px" viewBox="0 0 80 80" enable-background="new 0 0 80 80" xml:space="preserve">
<circle fill="none" stroke="#FF9C9C" stroke-miterlimit="10" cx="40.25" cy="39.612" r="35"/>
<g>
	<path fill="#FF9C9C" d="M51.271,34.474c0.016,0.225,0.016,0.449,0.016,0.673c0,6.836-5.203,14.712-14.713,14.712
		c-2.929,0-5.65-0.849-7.939-2.321c0.416,0.048,0.816,0.063,1.248,0.063c2.418,0,4.643-0.815,6.42-2.208
		c-2.273-0.049-4.178-1.538-4.834-3.587c0.32,0.049,0.641,0.08,0.977,0.08c0.464,0,0.928-0.063,1.359-0.176
		c-2.369-0.48-4.146-2.562-4.146-5.075c0-0.016,0-0.047,0-0.063c0.688,0.384,1.489,0.625,2.337,0.656
		c-1.393-0.929-2.305-2.514-2.305-4.307c0-0.96,0.256-1.841,0.704-2.609c2.546,3.138,6.372,5.187,10.662,5.412
		c-0.081-0.385-0.128-0.786-0.128-1.186c0-2.85,2.305-5.171,5.17-5.171c1.49,0,2.834,0.625,3.778,1.633
		c1.169-0.224,2.29-0.656,3.282-1.248c-0.385,1.2-1.2,2.209-2.273,2.85c1.041-0.112,2.049-0.401,2.978-0.801
		C53.16,32.825,52.279,33.738,51.271,34.474z"/>
</g>
</svg>
