<?xml version="1.0" encoding="utf-8"?>
<!-- Generator: Adobe Illustrator 16.0.4, SVG Export Plug-In . SVG Version: 6.00 Build 0)  -->
<!DOCTYPE svg PUBLIC "-//W3C//DTD SVG 1.1//EN" "http://www.w3.org/Graphics/SVG/1.1/DTD/svg11.dtd">
<svg version="1.1" id="Warstwa_1" xmlns="http://www.w3.org/2000/svg" xmlns:xlink="http://www.w3.org/1999/xlink" x="0px" y="0px"
	 width="80px" height="80px" viewBox="0 0 80 80" enable-background="new 0 0 80 80" xml:space="preserve">
<circle fill="none" stroke="#FF9C9C" stroke-miterlimit="10" cx="39.875" cy="40.015" r="35"/>
<g>
	<path fill="#FF9C9C" d="M32.276,33.242h-0.03c-1.634,0-2.68-1.118-2.68-2.519c0-1.427,1.09-2.517,2.739-2.517
		c1.664,0,2.695,1.09,2.709,2.517C35.029,32.124,33.969,33.242,32.276,33.242z M34.706,49.823h-4.859V35.229h4.859V49.823z
		 M52.184,49.823H47.34V42.02c0-1.959-0.707-3.3-2.46-3.3c-1.34,0-2.135,0.899-2.488,1.768c-0.118,0.324-0.162,0.75-0.162,1.193
		v8.143h-4.844c0.059-13.224,0-14.594,0-14.594h4.844v2.121H42.2c0.634-1.001,1.782-2.459,4.403-2.459
		c3.195,0,5.58,2.092,5.58,6.567V49.823z"/>
</g>
</svg>
